<svg width="1728" height="1070" viewBox="0 0 1728 1070" fill="none" xmlns="http://www.w3.org/2000/svg">
<path d="M160.16 792.872C100.684 792.872 55.2025 774.504 23.7153 737.769C-7.18887 701.034 -24.3902 650.596 -27.8888 586.455L59.5758 562.84C62.4912 608.322 71.2377 645.057 85.8151 673.045C100.976 701.034 125.757 715.028 160.16 715.028C185.816 715.028 205.058 708.031 217.887 694.037C231.298 679.459 238.003 658.759 238.003 631.937C238.003 602.782 231.881 578.584 219.636 559.341C207.391 540.099 187.857 518.816 161.035 495.492L42.0828 390.535C18.1759 369.543 0.682943 347.094 -10.3959 323.187C-20.8917 298.697 -26.1395 268.959 -26.1395 233.973C-26.1395 182.078 -11.2705 141.844 18.4674 113.272C48.2054 84.7003 88.7306 70.4144 140.043 70.4144C196.02 70.4144 238.295 85.2834 266.867 115.021C295.439 144.759 312.64 190.824 318.471 253.215L234.505 275.956C231.589 234.556 223.426 202.777 210.015 180.62C197.187 157.879 173.863 146.509 140.043 146.509C114.97 146.509 95.7278 153.214 82.3165 166.625C68.9053 179.454 62.1997 198.696 62.1997 224.352C62.1997 245.344 65.6983 263.128 72.6954 277.705C79.6926 291.7 91.6461 305.986 108.556 320.563L228.382 425.521C259.287 452.926 283.777 482.664 301.853 514.734C320.512 546.805 329.841 583.248 329.841 624.065C329.841 675.961 314.098 717.069 282.61 747.39C251.123 777.711 210.306 792.872 160.16 792.872ZM489.601 791.997C470.359 791.997 452.866 786.458 437.122 775.379C421.961 764.3 410.008 749.723 401.262 731.647C392.515 713.571 388.142 694.62 388.142 674.795C388.142 635.144 396.597 603.074 413.507 578.584C430.416 553.51 451.991 533.685 478.23 519.108C504.47 504.53 540.913 487.912 587.561 469.253V433.392C587.561 400.156 584.063 376.832 577.065 363.421C570.651 349.426 557.24 342.429 536.832 342.429C501.263 342.429 483.478 366.336 483.478 414.15V439.515L390.766 436.016C391.932 380.039 404.76 338.931 429.25 312.691C453.74 285.869 491.642 272.458 542.954 272.458C591.351 272.458 626.337 285.869 647.912 312.691C670.069 338.931 681.148 378.873 681.148 432.518V663.424C681.148 701.326 684.064 741.851 689.895 785H604.179C597.765 751.763 593.684 726.982 591.934 710.655C584.937 733.396 572.692 752.638 555.199 768.382C538.289 784.125 516.423 791.997 489.601 791.997ZM526.336 711.53C538.581 711.53 550.534 706.865 562.196 697.535C573.858 687.623 582.313 678.293 587.561 669.547V526.105C562.488 540.099 542.954 552.344 528.96 562.84C515.549 572.753 504.178 584.415 494.849 597.826C486.102 611.237 481.729 627.272 481.729 645.931C481.729 666.923 485.519 683.25 493.099 694.911C500.68 705.99 511.758 711.53 526.336 711.53ZM763.174 840.103C798.159 840.103 822.066 837.479 834.894 832.231C848.306 826.983 855.011 817.07 855.011 802.493C855.011 795.496 848.597 764.592 835.769 709.78L734.31 279.455H828.772L896.994 657.302L962.593 279.455H1057.05L936.353 812.989C928.19 848.558 910.989 873.922 884.749 889.083C858.51 904.243 821.775 911.824 774.544 911.824H763.174V840.103ZM1204.52 791.997C1185.28 791.997 1167.79 786.458 1152.04 775.379C1136.88 764.3 1124.93 749.723 1116.18 731.647C1107.44 713.571 1103.06 694.62 1103.06 674.795C1103.06 635.144 1111.52 603.074 1128.43 578.584C1145.34 553.51 1166.91 533.685 1193.15 519.108C1219.39 504.53 1255.83 487.912 1302.48 469.253V433.392C1302.48 400.156 1298.98 376.832 1291.99 363.421C1285.57 349.426 1272.16 342.429 1251.75 342.429C1216.18 342.429 1198.4 366.336 1198.4 414.15V439.515L1105.69 436.016C1106.85 380.039 1119.68 338.931 1144.17 312.691C1168.66 285.869 1206.56 272.458 1257.87 272.458C1306.27 272.458 1341.26 285.869 1362.83 312.691C1384.99 338.931 1396.07 378.873 1396.07 432.518V663.424C1396.07 701.326 1398.98 741.851 1404.82 785H1319.1C1312.69 751.763 1308.6 726.982 1306.85 710.655C1299.86 733.396 1287.61 752.638 1270.12 768.382C1253.21 784.125 1231.34 791.997 1204.52 791.997ZM1241.26 711.53C1253.5 711.53 1265.45 706.865 1277.12 697.535C1288.78 687.623 1297.23 678.293 1302.48 669.547V526.105C1277.41 540.099 1257.87 552.344 1243.88 562.84C1230.47 572.753 1219.1 584.415 1209.77 597.826C1201.02 611.237 1196.65 627.272 1196.65 645.931C1196.65 666.923 1200.44 683.25 1208.02 694.911C1215.6 705.99 1226.68 711.53 1241.26 711.53ZM1488.59 279.455H1582.18V351.176C1599.67 322.604 1617.45 302.487 1635.53 290.825C1654.19 279.163 1673.72 273.332 1694.13 273.332C1699.38 273.332 1704.34 273.624 1709 274.207V377.415C1690.34 370.418 1673.14 366.919 1657.4 366.919C1642.24 366.919 1628.53 370.709 1616.29 378.29C1604.63 385.287 1593.26 397.823 1582.18 415.9V785H1488.59V279.455Z" fill="url(#paint0_linear_11_6)"/>
<path d="M218.364 824.178H237.153C244.56 824.178 250.049 825.861 253.618 829.229C257.187 832.528 258.972 837.68 258.972 844.684C258.972 855.122 255.066 860.88 247.254 861.957C252.103 863.102 255.638 865.392 257.861 868.827C260.083 872.194 261.194 876.807 261.194 882.666C261.194 890.006 259.443 895.73 255.941 899.838C252.507 903.946 247.254 906 240.183 906H218.364V824.178ZM236.547 858.321C241.261 858.321 244.527 857.311 246.345 855.291C248.163 853.203 249.072 849.667 249.072 844.684C249.072 841.047 248.5 838.387 247.355 836.704C246.278 834.953 244.628 833.842 242.405 833.37C240.183 832.899 236.883 832.663 232.506 832.663H229.779V858.321H236.547ZM237.456 897.818C240.823 897.818 243.416 897.313 245.234 896.303C247.12 895.225 248.433 893.609 249.173 891.454C249.914 889.299 250.285 886.369 250.285 882.666C250.285 877.413 249.207 873.507 247.052 870.948C244.897 868.321 241.395 867.008 236.547 867.008H229.779V897.818H237.456ZM270.731 824.178H281.54V853.674C286.389 849.095 291.271 846.805 296.187 846.805C299.352 846.805 301.575 847.95 302.854 850.24C304.201 852.529 304.875 855.358 304.875 858.725V906H294.066V861.856C294.066 859.634 293.729 857.984 293.056 856.907C292.382 855.829 291.17 855.291 289.419 855.291C287.062 855.291 284.436 856.57 281.54 859.129V906H270.731V824.178ZM325.917 906.808C323.695 906.808 321.675 906.168 319.856 904.889C318.105 903.609 316.725 901.926 315.715 899.838C314.705 897.75 314.199 895.562 314.199 893.272C314.199 888.693 315.176 884.989 317.129 882.16C319.082 879.265 321.574 876.975 324.604 875.291C327.634 873.608 331.843 871.689 337.231 869.534V865.392C337.231 861.553 336.827 858.86 336.019 857.311C335.278 855.695 333.729 854.886 331.372 854.886C327.264 854.886 325.21 857.648 325.21 863.17V866.099L314.503 865.695C314.637 859.23 316.119 854.482 318.947 851.452C321.776 848.354 326.153 846.805 332.079 846.805C337.669 846.805 341.709 848.354 344.201 851.452C346.76 854.482 348.039 859.095 348.039 865.291V891.959C348.039 896.336 348.376 901.017 349.05 906H339.15C338.409 902.161 337.938 899.299 337.736 897.414C336.928 900.04 335.514 902.262 333.493 904.081C331.54 905.899 329.015 906.808 325.917 906.808ZM330.16 897.515C331.574 897.515 332.955 896.976 334.301 895.899C335.648 894.754 336.625 893.676 337.231 892.666V876.1C334.335 877.716 332.079 879.13 330.463 880.342C328.914 881.487 327.601 882.834 326.523 884.383C325.513 885.932 325.008 887.784 325.008 889.939C325.008 892.363 325.446 894.249 326.321 895.595C327.197 896.875 328.476 897.515 330.16 897.515ZM373.189 906.808C364.771 906.808 360.562 902.161 360.562 892.868V854.785H354.4V847.613H360.562V830.542H371.371V847.613H380.765V854.785H371.371V892.161C371.371 894.518 371.741 896.168 372.482 897.111C373.223 898.053 374.637 898.525 376.725 898.525C378.071 898.525 379.385 898.424 380.664 898.222V906.202C377.97 906.606 375.479 906.808 373.189 906.808ZM404.263 906.808C395.845 906.808 391.636 902.161 391.636 892.868V854.785H385.474V847.613H391.636V830.542H402.445V847.613H411.839V854.785H402.445V892.161C402.445 894.518 402.815 896.168 403.556 897.111C404.297 898.053 405.711 898.525 407.798 898.525C409.145 898.525 410.459 898.424 411.738 898.222V906.202C409.044 906.606 406.553 906.808 404.263 906.808ZM430.286 906.808C428.064 906.808 426.044 906.168 424.225 904.889C422.474 903.609 421.094 901.926 420.084 899.838C419.073 897.75 418.568 895.562 418.568 893.272C418.568 888.693 419.545 884.989 421.498 882.16C423.451 879.265 425.943 876.975 428.973 875.291C432.003 873.608 436.212 871.689 441.6 869.534V865.392C441.6 861.553 441.196 858.86 440.388 857.311C439.647 855.695 438.098 854.886 435.741 854.886C431.633 854.886 429.579 857.648 429.579 863.17V866.099L418.871 865.695C419.006 859.23 420.488 854.482 423.316 851.452C426.145 848.354 430.522 846.805 436.448 846.805C442.038 846.805 446.078 848.354 448.57 851.452C451.129 854.482 452.408 859.095 452.408 865.291V891.959C452.408 896.336 452.745 901.017 453.419 906H443.519C442.778 902.161 442.307 899.299 442.105 897.414C441.297 900.04 439.883 902.262 437.862 904.081C435.909 905.899 433.384 906.808 430.286 906.808ZM434.529 897.515C435.943 897.515 437.324 896.976 438.67 895.899C440.017 894.754 440.994 893.676 441.6 892.666V876.1C438.704 877.716 436.448 879.13 434.832 880.342C433.283 881.487 431.97 882.834 430.892 884.383C429.882 885.932 429.377 887.784 429.377 889.939C429.377 892.363 429.815 894.249 430.69 895.595C431.566 896.875 432.845 897.515 434.529 897.515ZM478.751 906.808C474.172 906.808 470.636 905.899 468.145 904.081C465.653 902.195 463.936 899.602 462.993 896.303C462.117 892.935 461.68 888.693 461.68 883.575V870.14C461.68 864.887 462.117 860.577 462.993 857.21C463.936 853.843 465.653 851.284 468.145 849.533C470.636 847.714 474.172 846.805 478.751 846.805C482.927 846.805 486.159 847.479 488.449 848.826C490.806 850.172 492.422 852.193 493.297 854.886C494.24 857.513 494.712 860.947 494.712 865.19V868.624H484.913V865.089C484.913 861.25 484.475 858.59 483.6 857.109C482.792 855.56 481.209 854.785 478.852 854.785C477.034 854.785 475.687 855.189 474.812 855.998C473.936 856.806 473.33 858.119 472.993 859.937C472.657 861.755 472.488 864.416 472.488 867.917V886.302C472.488 889.669 472.69 892.262 473.094 894.08C473.498 895.831 474.138 897.077 475.014 897.818C475.956 898.491 477.27 898.828 478.953 898.828C481.445 898.828 483.061 898.02 483.802 896.404C484.543 894.72 484.913 892.161 484.913 888.726V883.979H494.712V888.019C494.712 894.35 493.533 899.064 491.176 902.161C488.886 905.259 484.745 906.808 478.751 906.808ZM504.624 824.178H515.433V853.674C520.282 849.095 525.164 846.805 530.08 846.805C533.245 846.805 535.468 847.95 536.747 850.24C538.094 852.529 538.768 855.358 538.768 858.725V906H527.959V861.856C527.959 859.634 527.622 857.984 526.949 856.907C526.275 855.829 525.063 855.291 523.312 855.291C520.955 855.291 518.329 856.57 515.433 859.129V906H504.624V824.178ZM559.81 906.808C557.588 906.808 555.568 906.168 553.749 904.889C551.998 903.609 550.618 901.926 549.608 899.838C548.597 897.75 548.092 895.562 548.092 893.272C548.092 888.693 549.069 884.989 551.022 882.16C552.975 879.265 555.467 876.975 558.497 875.291C561.527 873.608 565.736 871.689 571.124 869.534V865.392C571.124 861.553 570.72 858.86 569.912 857.311C569.171 855.695 567.622 854.886 565.265 854.886C561.157 854.886 559.103 857.648 559.103 863.17V866.099L548.395 865.695C548.53 859.23 550.012 854.482 552.84 851.452C555.669 848.354 560.046 846.805 565.972 846.805C571.562 846.805 575.602 848.354 578.094 851.452C580.653 854.482 581.932 859.095 581.932 865.291V891.959C581.932 896.336 582.269 901.017 582.943 906H573.043C572.302 902.161 571.831 899.299 571.629 897.414C570.821 900.04 569.407 902.262 567.386 904.081C565.433 905.899 562.908 906.808 559.81 906.808ZM564.053 897.515C565.467 897.515 566.848 896.976 568.194 895.899C569.541 894.754 570.518 893.676 571.124 892.666V876.1C568.228 877.716 565.972 879.13 564.356 880.342C562.807 881.487 561.494 882.834 560.416 884.383C559.406 885.932 558.901 887.784 558.901 889.939C558.901 892.363 559.339 894.249 560.214 895.595C561.09 896.875 562.369 897.515 564.053 897.515ZM592.618 847.613H603.427V855.897C605.447 852.597 607.501 850.273 609.588 848.927C611.743 847.58 613.999 846.906 616.356 846.906C616.963 846.906 617.535 846.94 618.074 847.007V858.927C615.919 858.119 613.932 857.715 612.114 857.715C610.363 857.715 608.78 858.153 607.366 859.028C606.019 859.836 604.706 861.284 603.427 863.372V906H592.618V847.613ZM623.861 912.364C627.901 912.364 630.662 912.061 632.144 911.455C633.693 910.849 634.467 909.704 634.467 908.02C634.467 907.212 633.727 903.643 632.245 897.313L620.527 847.613H631.437L639.316 891.252L646.892 847.613H657.802L643.862 909.232C642.919 913.34 640.932 916.27 637.902 918.021C634.871 919.772 630.629 920.647 625.174 920.647H623.861V912.364ZM663.418 912.364C667.459 912.364 670.22 912.061 671.702 911.455C673.25 910.849 674.025 909.704 674.025 908.02C674.025 907.212 673.284 903.643 671.803 897.313L660.085 847.613H670.994L678.874 891.252L686.45 847.613H697.359L683.419 909.232C682.476 913.34 680.49 916.27 677.459 918.021C674.429 919.772 670.186 920.647 664.732 920.647H663.418V912.364ZM714.391 906.808C712.168 906.808 710.148 906.168 708.33 904.889C706.579 903.609 705.198 901.926 704.188 899.838C703.178 897.75 702.673 895.562 702.673 893.272C702.673 888.693 703.649 884.989 705.602 882.16C707.555 879.265 710.047 876.975 713.077 875.291C716.108 873.608 720.317 871.689 725.704 869.534V865.392C725.704 861.553 725.3 858.86 724.492 857.311C723.751 855.695 722.202 854.886 719.845 854.886C715.737 854.886 713.684 857.648 713.684 863.17V866.099L702.976 865.695C703.111 859.23 704.592 854.482 707.421 851.452C710.249 848.354 714.626 846.805 720.553 846.805C726.142 846.805 730.183 848.354 732.674 851.452C735.233 854.482 736.513 859.095 736.513 865.291V891.959C736.513 896.336 736.85 901.017 737.523 906H727.624C726.883 902.161 726.411 899.299 726.209 897.414C725.401 900.04 723.987 902.262 721.967 904.081C720.014 905.899 717.488 906.808 714.391 906.808ZM718.633 897.515C720.047 897.515 721.428 896.976 722.775 895.899C724.122 894.754 725.098 893.676 725.704 892.666V876.1C722.809 877.716 720.553 879.13 718.936 880.342C717.387 881.487 716.074 882.834 714.997 884.383C713.987 885.932 713.481 887.784 713.481 889.939C713.481 892.363 713.919 894.249 714.795 895.595C715.67 896.875 716.95 897.515 718.633 897.515Z" fill="black"/>
<path d="M973.348 823.093H987.222C992.053 823.093 995.55 824.404 997.713 827.027C999.922 829.65 1001.03 833.492 1001.03 838.553C1001.03 843.109 999.853 846.652 997.506 849.183C995.159 851.714 991.754 852.979 987.291 852.979H981.148V879H973.348V823.093ZM984.737 847.388C987.038 847.388 988.809 847.135 990.052 846.629C991.34 846.123 992.26 845.249 992.812 844.006C993.365 842.764 993.641 840.969 993.641 838.622C993.641 835.77 993.434 833.676 993.019 832.341C992.605 831.007 991.777 830.064 990.535 829.512C989.338 828.959 987.429 828.683 984.806 828.683H981.148V847.388H984.737ZM1006.1 839.106H1013.48V844.765C1014.86 842.511 1016.27 840.923 1017.69 840.003C1019.16 839.083 1020.71 838.622 1022.32 838.622C1022.73 838.622 1023.12 838.645 1023.49 838.691V846.836C1022.02 846.284 1020.66 846.008 1019.42 846.008C1018.22 846.008 1017.14 846.307 1016.17 846.905C1015.25 847.457 1014.36 848.446 1013.48 849.873V879H1006.1V839.106ZM1039.04 879.552C1034.81 879.552 1031.79 878.31 1030 875.825C1028.25 873.294 1027.38 869.636 1027.38 864.851V853.255C1027.38 848.47 1028.25 844.834 1030 842.35C1031.79 839.819 1034.81 838.553 1039.04 838.553C1043.23 838.553 1046.2 839.819 1047.94 842.35C1049.74 844.834 1050.64 848.47 1050.64 853.255V864.851C1050.64 869.636 1049.74 873.294 1047.94 875.825C1046.2 878.31 1043.23 879.552 1039.04 879.552ZM1039.04 874.099C1040.37 874.099 1041.34 873.708 1041.94 872.926C1042.54 872.144 1042.91 871.178 1043.04 870.027C1043.18 868.877 1043.25 867.312 1043.25 865.334V852.841C1043.25 850.862 1043.18 849.298 1043.04 848.147C1042.91 846.951 1042.54 845.962 1041.94 845.179C1041.34 844.397 1040.37 844.006 1039.04 844.006C1037.71 844.006 1036.72 844.397 1036.07 845.179C1035.47 845.962 1035.11 846.951 1034.97 848.147C1034.83 849.298 1034.76 850.862 1034.76 852.841V865.334C1034.76 867.312 1034.83 868.877 1034.97 870.027C1035.11 871.178 1035.47 872.144 1036.07 872.926C1036.72 873.708 1037.71 874.099 1039.04 874.099ZM1067.74 891.355C1063.87 891.355 1060.79 890.734 1058.49 889.491C1056.19 888.295 1055.04 886.408 1055.04 883.832C1055.04 882.083 1055.57 880.564 1056.63 879.276C1057.73 877.988 1059.11 876.952 1060.77 876.17C1059.53 875.802 1058.56 875.227 1057.87 874.445C1057.23 873.662 1056.9 872.811 1056.9 871.891C1056.9 870.51 1057.25 869.314 1057.94 868.302C1058.63 867.289 1059.76 866.07 1061.32 864.644C1059.76 863.447 1058.58 861.952 1057.8 860.157C1057.06 858.317 1056.7 855.855 1056.7 852.772C1056.7 848.124 1057.64 844.604 1059.53 842.212C1061.46 839.773 1064.27 838.553 1067.95 838.553C1070.06 838.553 1071.79 838.922 1073.12 839.658C1074.46 840.394 1075.47 841.498 1076.16 842.971C1076.48 842.465 1077.15 841.797 1078.16 840.969C1079.22 840.095 1080.35 839.382 1081.54 838.83L1082.65 838.346L1084.51 843.109C1083.59 843.293 1082.3 843.684 1080.65 844.282C1079.04 844.88 1078.07 845.341 1077.75 845.663C1078.07 846.491 1078.35 847.641 1078.58 849.114C1078.85 850.586 1078.99 851.875 1078.99 852.979C1078.99 857.35 1078.14 860.755 1076.44 863.194C1074.73 865.587 1071.9 866.783 1067.95 866.783C1066.7 866.783 1065.44 866.622 1064.15 866.3C1063.28 867.588 1062.84 868.601 1062.84 869.337C1062.84 869.843 1063.09 870.257 1063.6 870.579C1064.15 870.855 1065 871.04 1066.15 871.132L1072.36 871.684C1075.49 871.96 1077.82 872.903 1079.34 874.514C1080.85 876.124 1081.61 878.425 1081.61 881.416C1081.61 888.042 1076.99 891.355 1067.74 891.355ZM1067.95 861.607C1069.93 861.607 1071.21 860.916 1071.81 859.536C1072.41 858.156 1072.71 855.901 1072.71 852.772C1072.71 849.597 1072.41 847.296 1071.81 845.87C1071.21 844.397 1069.95 843.661 1068.02 843.661C1066.08 843.661 1064.77 844.397 1064.08 845.87C1063.44 847.296 1063.12 849.597 1063.12 852.772C1063.12 855.625 1063.44 857.81 1064.08 859.329C1064.77 860.847 1066.06 861.607 1067.95 861.607ZM1068.29 885.557C1070.91 885.557 1072.85 885.235 1074.09 884.591C1075.33 883.993 1075.95 883.003 1075.95 881.623C1075.95 880.334 1075.56 879.391 1074.78 878.793C1074 878.149 1072.57 877.735 1070.5 877.551L1064.22 876.998C1063.25 877.965 1062.52 878.816 1062.01 879.552C1061.5 880.288 1061.25 881.094 1061.25 881.968C1061.25 883.21 1061.76 884.108 1062.77 884.66C1063.83 885.258 1065.67 885.557 1068.29 885.557ZM1087.59 839.106H1094.97V844.765C1096.35 842.511 1097.76 840.923 1099.18 840.003C1100.66 839.083 1102.2 838.622 1103.81 838.622C1104.22 838.622 1104.61 838.645 1104.98 838.691V846.836C1103.51 846.284 1102.15 846.008 1100.91 846.008C1099.71 846.008 1098.63 846.307 1097.67 846.905C1096.74 847.457 1095.85 848.446 1094.97 849.873V879H1087.59V839.106ZM1116.74 879.552C1115.22 879.552 1113.84 879.115 1112.59 878.241C1111.4 877.366 1110.45 876.216 1109.76 874.79C1109.07 873.363 1108.73 871.868 1108.73 870.303C1108.73 867.174 1109.4 864.644 1110.73 862.711C1112.06 860.732 1113.77 859.168 1115.84 858.017C1117.91 856.867 1120.78 855.556 1124.47 854.083V851.253C1124.47 848.631 1124.19 846.79 1123.64 845.732C1123.13 844.627 1122.07 844.075 1120.46 844.075C1117.66 844.075 1116.25 845.962 1116.25 849.735V851.737L1108.94 851.46C1109.03 847.043 1110.04 843.799 1111.97 841.728C1113.91 839.612 1116.9 838.553 1120.95 838.553C1124.76 838.553 1127.53 839.612 1129.23 841.728C1130.98 843.799 1131.85 846.951 1131.85 851.184V869.406C1131.85 872.397 1132.08 875.595 1132.54 879H1125.78C1125.27 876.377 1124.95 874.422 1124.81 873.133C1124.26 874.928 1123.29 876.446 1121.91 877.689C1120.58 878.931 1118.85 879.552 1116.74 879.552ZM1119.63 873.202C1120.6 873.202 1121.54 872.834 1122.46 872.098C1123.38 871.316 1124.05 870.579 1124.47 869.889V858.57C1122.49 859.674 1120.95 860.64 1119.84 861.469C1118.78 862.251 1117.89 863.171 1117.15 864.229C1116.46 865.288 1116.11 866.553 1116.11 868.026C1116.11 869.682 1116.41 870.971 1117.01 871.891C1117.61 872.765 1118.48 873.202 1119.63 873.202ZM1138.94 839.106H1145.78V842.902C1147.11 841.429 1148.56 840.325 1150.13 839.589C1151.74 838.806 1153.42 838.415 1155.16 838.415C1158.57 838.415 1160.73 840.095 1161.65 843.454C1164.41 840.095 1167.73 838.415 1171.59 838.415C1173.66 838.415 1175.34 839.175 1176.63 840.693C1177.97 842.212 1178.63 844.535 1178.63 847.664V879H1171.87V848.147C1171.87 846.307 1171.57 845.041 1170.97 844.351C1170.37 843.615 1169.52 843.247 1168.42 843.247C1167.4 843.247 1166.35 843.546 1165.24 844.144C1164.14 844.696 1163.13 845.479 1162.21 846.491V847.664V879H1155.44V848.147C1155.44 846.307 1155.14 845.041 1154.54 844.351C1153.95 843.615 1153.09 843.247 1151.99 843.247C1151.02 843.247 1149.99 843.546 1148.88 844.144C1147.78 844.696 1146.74 845.479 1145.78 846.491V879H1138.94V839.106ZM1185.86 839.106H1192.69V842.902C1194.03 841.429 1195.47 840.325 1197.04 839.589C1198.65 838.806 1200.33 838.415 1202.08 838.415C1205.48 838.415 1207.65 840.095 1208.57 843.454C1211.33 840.095 1214.64 838.415 1218.51 838.415C1220.58 838.415 1222.26 839.175 1223.54 840.693C1224.88 842.212 1225.55 844.535 1225.55 847.664V879H1218.78V848.147C1218.78 846.307 1218.48 845.041 1217.88 844.351C1217.29 843.615 1216.43 843.247 1215.33 843.247C1214.32 843.247 1213.26 843.546 1212.16 844.144C1211.05 844.696 1210.04 845.479 1209.12 846.491V847.664V879H1202.35V848.147C1202.35 846.307 1202.05 845.041 1201.46 844.351C1200.86 843.615 1200.01 843.247 1198.9 843.247C1197.94 843.247 1196.9 843.546 1195.8 844.144C1194.69 844.696 1193.66 845.479 1192.69 846.491V879H1185.86V839.106ZM1243.81 879.552C1240.73 879.552 1238.34 878.977 1236.64 877.827C1234.93 876.63 1233.74 874.882 1233.05 872.581C1232.36 870.28 1232.01 867.289 1232.01 863.608V854.497C1232.01 848.976 1232.86 844.949 1234.57 842.419C1236.31 839.842 1239.4 838.553 1243.81 838.553C1247.04 838.553 1249.45 839.221 1251.06 840.555C1252.72 841.889 1253.8 843.776 1254.31 846.215C1254.86 848.608 1255.13 851.852 1255.13 855.947V859.191H1239.4V867.197C1239.4 869.636 1239.74 871.408 1240.43 872.512C1241.17 873.57 1242.32 874.099 1243.88 874.099C1245.45 874.099 1246.51 873.57 1247.06 872.512C1247.61 871.408 1247.89 869.751 1247.89 867.542V865.127H1255.06V866.645C1255.06 870.832 1254.17 874.03 1252.37 876.239C1250.58 878.448 1247.73 879.552 1243.81 879.552ZM1247.89 855.188V851.598C1247.89 848.884 1247.61 846.951 1247.06 845.801C1246.55 844.604 1245.45 844.006 1243.75 844.006C1242.55 844.006 1241.63 844.282 1240.98 844.834C1240.39 845.387 1239.97 846.307 1239.74 847.595C1239.51 848.838 1239.4 850.655 1239.4 853.048V855.188H1247.89ZM1262.03 839.106H1269.41V844.765C1270.79 842.511 1272.2 840.923 1273.62 840.003C1275.1 839.083 1276.64 838.622 1278.25 838.622C1278.66 838.622 1279.05 838.645 1279.42 838.691V846.836C1277.95 846.284 1276.59 846.008 1275.35 846.008C1274.15 846.008 1273.07 846.307 1272.11 846.905C1271.19 847.457 1270.29 848.446 1269.41 849.873V879H1262.03V839.106ZM1300.87 823.093H1307.71V889.215H1300.81L1300.87 823.093ZM1330.81 823.093H1337.3L1343.31 863.263L1350.83 823.3H1356.35L1363.94 863.47L1369.81 823.093H1376.16L1367.19 879H1361.53L1353.73 837.587L1345.86 879H1339.93L1330.81 823.093ZM1392.71 879.552C1389.63 879.552 1387.23 878.977 1385.53 877.827C1383.83 876.63 1382.63 874.882 1381.94 872.581C1381.25 870.28 1380.91 867.289 1380.91 863.608V854.497C1380.91 848.976 1381.76 844.949 1383.46 842.419C1385.21 839.842 1388.29 838.553 1392.71 838.553C1395.93 838.553 1398.35 839.221 1399.96 840.555C1401.61 841.889 1402.69 843.776 1403.2 846.215C1403.75 848.608 1404.03 851.852 1404.03 855.947V859.191H1388.29V867.197C1388.29 869.636 1388.64 871.408 1389.33 872.512C1390.06 873.57 1391.21 874.099 1392.78 874.099C1394.34 874.099 1395.4 873.57 1395.95 872.512C1396.51 871.408 1396.78 869.751 1396.78 867.542V865.127H1403.96V866.645C1403.96 870.832 1403.06 874.03 1401.27 876.239C1399.47 878.448 1396.62 879.552 1392.71 879.552ZM1396.78 855.188V851.598C1396.78 848.884 1396.51 846.951 1395.95 845.801C1395.45 844.604 1394.34 844.006 1392.64 844.006C1391.44 844.006 1390.52 844.282 1389.88 844.834C1389.28 845.387 1388.87 846.307 1388.64 847.595C1388.41 848.838 1388.29 850.655 1388.29 853.048V855.188H1396.78ZM1425 879.552C1422.61 879.552 1420.36 878.402 1418.24 876.101V879H1410.85V823.093H1418.24V842.281C1420.4 839.796 1422.91 838.553 1425.76 838.553C1429.4 838.553 1431.81 840.118 1433.01 843.247C1434.25 846.33 1434.87 849.758 1434.87 853.531V863.194C1434.87 874.099 1431.58 879.552 1425 879.552ZM1423.49 873.754C1425.19 873.754 1426.27 872.903 1426.73 871.201C1427.24 869.452 1427.49 866.783 1427.49 863.194V853.531C1427.49 850.586 1427.21 848.331 1426.66 846.767C1426.11 845.156 1424.96 844.351 1423.21 844.351C1421.6 844.351 1419.94 845.018 1418.24 846.353V871.96C1419.76 873.156 1421.51 873.754 1423.49 873.754ZM1457.98 823.093H1470.13C1476.16 823.093 1480.41 824.473 1482.9 827.234C1485.43 829.995 1486.69 834.297 1486.69 840.141V860.709C1486.69 866.875 1485.45 871.477 1482.97 874.514C1480.53 877.505 1476.46 879 1470.75 879H1457.98V823.093ZM1470.2 873.409C1472.91 873.409 1474.87 872.88 1476.07 871.822C1477.31 870.763 1478.07 869.337 1478.34 867.542C1478.66 865.702 1478.83 862.941 1478.83 859.26V841.107C1478.83 837.932 1478.62 835.516 1478.2 833.86C1477.84 832.157 1477.03 830.915 1475.79 830.133C1474.55 829.305 1472.61 828.89 1469.99 828.89H1465.78V873.409H1470.2ZM1504.8 879.552C1501.72 879.552 1499.33 878.977 1497.62 877.827C1495.92 876.63 1494.72 874.882 1494.03 872.581C1493.34 870.28 1493 867.289 1493 863.608V854.497C1493 848.976 1493.85 844.949 1495.55 842.419C1497.3 839.842 1500.38 838.553 1504.8 838.553C1508.02 838.553 1510.44 839.221 1512.05 840.555C1513.71 841.889 1514.79 843.776 1515.29 846.215C1515.85 848.608 1516.12 851.852 1516.12 855.947V859.191H1500.38V867.197C1500.38 869.636 1500.73 871.408 1501.42 872.512C1502.16 873.57 1503.31 874.099 1504.87 874.099C1506.44 874.099 1507.49 873.57 1508.05 872.512C1508.6 871.408 1508.87 869.751 1508.87 867.542V865.127H1516.05V866.645C1516.05 870.832 1515.16 874.03 1513.36 876.239C1511.57 878.448 1508.71 879.552 1504.8 879.552ZM1508.87 855.188V851.598C1508.87 848.884 1508.6 846.951 1508.05 845.801C1507.54 844.604 1506.44 844.006 1504.73 844.006C1503.54 844.006 1502.62 844.282 1501.97 844.834C1501.37 845.387 1500.96 846.307 1500.73 847.595C1500.5 848.838 1500.38 850.655 1500.38 853.048V855.188H1508.87ZM1520.12 839.106H1527.57L1532.47 871.201L1537.44 839.106H1544.62L1537.03 879H1527.99L1520.12 839.106ZM1560.41 879.552C1557.33 879.552 1554.93 878.977 1553.23 877.827C1551.53 876.63 1550.33 874.882 1549.64 872.581C1548.95 870.28 1548.61 867.289 1548.61 863.608V854.497C1548.61 848.976 1549.46 844.949 1551.16 842.419C1552.91 839.842 1555.99 838.553 1560.41 838.553C1563.63 838.553 1566.05 839.221 1567.66 840.555C1569.31 841.889 1570.4 843.776 1570.9 846.215C1571.45 848.608 1571.73 851.852 1571.73 855.947V859.191H1555.99V867.197C1555.99 869.636 1556.34 871.408 1557.03 872.512C1557.76 873.57 1558.91 874.099 1560.48 874.099C1562.04 874.099 1563.1 873.57 1563.65 872.512C1564.21 871.408 1564.48 869.751 1564.48 867.542V865.127H1571.66V866.645C1571.66 870.832 1570.76 874.03 1568.97 876.239C1567.17 878.448 1564.32 879.552 1560.41 879.552ZM1564.48 855.188V851.598C1564.48 848.884 1564.21 846.951 1563.65 845.801C1563.15 844.604 1562.04 844.006 1560.34 844.006C1559.14 844.006 1558.22 844.282 1557.58 844.834C1556.98 845.387 1556.57 846.307 1556.34 847.595C1556.11 848.838 1555.99 850.655 1555.99 853.048V855.188H1564.48ZM1579.11 823.093H1586.49V879H1579.11V823.093ZM1605.16 879.552C1600.93 879.552 1597.92 878.31 1596.12 875.825C1594.37 873.294 1593.5 869.636 1593.5 864.851V853.255C1593.5 848.47 1594.37 844.834 1596.12 842.35C1597.92 839.819 1600.93 838.553 1605.16 838.553C1609.35 838.553 1612.32 839.819 1614.07 842.35C1615.86 844.834 1616.76 848.47 1616.76 853.255V864.851C1616.76 869.636 1615.86 873.294 1614.07 875.825C1612.32 878.31 1609.35 879.552 1605.16 879.552ZM1605.16 874.099C1606.5 874.099 1607.47 873.708 1608.06 872.926C1608.66 872.144 1609.03 871.178 1609.17 870.027C1609.31 868.877 1609.37 867.312 1609.37 865.334V852.841C1609.37 850.862 1609.31 849.298 1609.17 848.147C1609.03 846.951 1608.66 845.962 1608.06 845.179C1607.47 844.397 1606.5 844.006 1605.16 844.006C1603.83 844.006 1602.84 844.397 1602.2 845.179C1601.6 845.962 1601.23 846.951 1601.09 848.147C1600.95 849.298 1600.89 850.862 1600.89 852.841V865.334C1600.89 867.312 1600.95 868.877 1601.09 870.027C1601.23 871.178 1601.6 872.144 1602.2 872.926C1602.84 873.708 1603.83 874.099 1605.16 874.099ZM1623.51 839.106H1630.9V842.281C1633.06 839.796 1635.59 838.553 1638.49 838.553C1642.12 838.553 1644.54 840.118 1645.74 843.247C1646.98 846.33 1647.6 849.758 1647.6 853.531V863.194C1647.6 868.072 1646.84 872.029 1645.32 875.066C1643.85 878.057 1641.3 879.552 1637.66 879.552C1635.31 879.552 1633.06 878.379 1630.9 876.032V892.114H1623.51V839.106ZM1636.21 873.754C1637.91 873.754 1638.99 872.903 1639.45 871.201C1639.96 869.452 1640.21 866.783 1640.21 863.194V853.531C1640.21 850.586 1639.94 848.331 1639.39 846.767C1638.83 845.156 1637.68 844.351 1635.93 844.351C1634.23 844.351 1632.55 845.041 1630.9 846.422V871.96C1632.51 873.156 1634.28 873.754 1636.21 873.754ZM1665.36 879.552C1662.27 879.552 1659.88 878.977 1658.18 877.827C1656.48 876.63 1655.28 874.882 1654.59 872.581C1653.9 870.28 1653.55 867.289 1653.55 863.608V854.497C1653.55 848.976 1654.41 844.949 1656.11 842.419C1657.86 839.842 1660.94 838.553 1665.36 838.553C1668.58 838.553 1670.99 839.221 1672.6 840.555C1674.26 841.889 1675.34 843.776 1675.85 846.215C1676.4 848.608 1676.68 851.852 1676.68 855.947V859.191H1660.94V867.197C1660.94 869.636 1661.29 871.408 1661.98 872.512C1662.71 873.57 1663.86 874.099 1665.43 874.099C1666.99 874.099 1668.05 873.57 1668.6 872.512C1669.15 871.408 1669.43 869.751 1669.43 867.542V865.127H1676.61V866.645C1676.61 870.832 1675.71 874.03 1673.92 876.239C1672.12 878.448 1669.27 879.552 1665.36 879.552ZM1669.43 855.188V851.598C1669.43 848.884 1669.15 846.951 1668.6 845.801C1668.1 844.604 1666.99 844.006 1665.29 844.006C1664.09 844.006 1663.17 844.282 1662.53 844.834C1661.93 845.387 1661.52 846.307 1661.29 847.595C1661.06 848.838 1660.94 850.655 1660.94 853.048V855.188H1669.43ZM1683.57 839.106H1690.96V844.765C1692.34 842.511 1693.74 840.923 1695.17 840.003C1696.64 839.083 1698.18 838.622 1699.79 838.622C1700.21 838.622 1700.6 838.645 1700.97 838.691V846.836C1699.49 846.284 1698.14 846.008 1696.89 846.008C1695.7 846.008 1694.62 846.307 1693.65 846.905C1692.73 847.457 1691.83 848.446 1690.96 849.873V879H1683.57V839.106Z" fill="black"/>
<defs>
<linearGradient id="paint0_linear_11_6" x1="799" y1="-634.5" x2="856" y2="1678" gradientUnits="userSpaceOnUse">
<stop offset="0.0127911" stop-opacity="0"/>
<stop offset="0.99739"/>
</linearGradient>
</defs>
</svg>
